<svg width="24" height="20" viewBox="0 0 24 20" fill="none" xmlns="http://www.w3.org/2000/svg">
<path d="M20.8897 2.61012C20.3533 2.09912 19.7163 1.69376 19.0152 1.4172C18.3142 1.14064 17.5627 0.998291 16.8038 0.998291C16.045 0.998291 15.2935 1.14064 14.5925 1.4172C13.8914 1.69376 13.2544 2.09912 12.718 2.61012L11.6046 3.67012L10.4912 2.61012C9.40754 1.57842 7.9378 0.998826 6.40529 0.998826C4.87278 0.998826 3.40304 1.57842 2.31939 2.61012C1.23574 3.64181 0.626953 5.04108 0.626953 6.50012C0.626953 7.95915 1.23574 9.35842 2.31939 10.3901L3.43277 11.4501L11.6046 19.2301L19.7764 11.4501L20.8897 10.3901C21.4265 9.87936 21.8522 9.27293 22.1427 8.60547C22.4332 7.93801 22.5827 7.2226 22.5827 6.50012C22.5827 5.77763 22.4332 5.06222 22.1427 4.39476C21.8522 3.7273 21.4265 3.12087 20.8897 2.61012V2.61012Z" stroke="#EBD4C8" stroke-linecap="round" stroke-linejoin="round"/>
</svg>
