<svg width="98" height="52" viewBox="0 0 98 52" fill="none" xmlns="http://www.w3.org/2000/svg">
<path d="M45.8561 0.690099L50.4459 12.499L50.4875 12.6061L50.5958 12.6443L62.9598 17L50.5958 21.3557L50.4875 21.3939L50.4459 21.501L45.8561 33.3099L41.2664 21.501L41.2248 21.3939L41.1164 21.3557L28.7524 17L41.1164 12.6443L41.2248 12.6061L41.2664 12.499L45.8561 0.690099Z" stroke="#EBD4C8" stroke-width="0.5"/>
<path d="M59.5107 10L61.4966 15.1094L66.8632 17L61.4966 18.8906L59.5107 24L57.5249 18.8906L52.1582 17L57.5249 15.1094L59.5107 10Z" fill="#E4C7B7"/>
<path d="M8.035 42.925V50H7.59V43.97C7.59 43.8833 7.595 43.7917 7.605 43.695L4.82 48.64C4.77333 48.7267 4.70667 48.77 4.62 48.77H4.54C4.45333 48.77 4.38667 48.7267 4.34 48.64L1.48 43.685C1.49 43.785 1.495 43.88 1.495 43.97V50H1.045V42.925H1.4C1.44667 42.925 1.48333 42.93 1.51 42.94C1.53667 42.95 1.56333 42.9767 1.59 43.02L4.445 47.94C4.495 48.0333 4.53833 48.1333 4.575 48.24C4.595 48.1867 4.61667 48.135 4.64 48.085C4.66333 48.0317 4.68833 47.9817 4.715 47.935L7.49 43.02C7.51667 42.9767 7.54333 42.95 7.57 42.94C7.6 42.93 7.63833 42.925 7.685 42.925H8.035ZM14.342 47.43L12.902 43.855C12.852 43.7383 12.8037 43.5983 12.757 43.435C12.737 43.515 12.7154 43.5917 12.692 43.665C12.6687 43.735 12.6437 43.8 12.617 43.86L11.177 47.43H14.342ZM15.907 50H15.512C15.4654 50 15.427 49.9883 15.397 49.965C15.367 49.9383 15.3437 49.905 15.327 49.865L14.497 47.81H11.022L10.192 49.865C10.1787 49.9017 10.1554 49.9333 10.122 49.96C10.0887 49.9867 10.0487 50 10.002 50H9.61203L12.507 42.925H13.012L15.907 50ZM23.4398 46.46C23.4398 47.0067 23.3581 47.4983 23.1948 47.935C23.0314 48.3717 22.8014 48.7433 22.5048 49.05C22.2081 49.3567 21.8514 49.5917 21.4348 49.755C21.0214 49.9183 20.5648 50 20.0648 50H17.4798V42.925H20.0648C20.5648 42.925 21.0214 43.0067 21.4348 43.17C21.8514 43.3333 22.2081 43.5683 22.5048 43.875C22.8014 44.1817 23.0314 44.5533 23.1948 44.99C23.3581 45.4267 23.4398 45.9167 23.4398 46.46ZM22.9098 46.46C22.9098 45.9667 22.8414 45.5267 22.7048 45.14C22.5681 44.7533 22.3748 44.4267 22.1248 44.16C21.8748 43.8933 21.5748 43.69 21.2248 43.55C20.8748 43.41 20.4881 43.34 20.0648 43.34H17.9948V49.585H20.0648C20.4881 49.585 20.8748 49.515 21.2248 49.375C21.5748 49.235 21.8748 49.0317 22.1248 48.765C22.3748 48.4983 22.5681 48.1717 22.7048 47.785C22.8414 47.3983 22.9098 46.9567 22.9098 46.46ZM29.7274 49.575L29.7174 50H25.4774V42.925H29.7174V43.35H25.9924V46.21H29.0924V46.625H25.9924V49.575H29.7274ZM35.308 50H34.793V42.925H35.308V50ZM43.2605 42.925V50H43.0205C42.9771 50 42.9405 49.9933 42.9105 49.98C42.8838 49.9633 42.8571 49.9367 42.8305 49.9L38.2355 43.76C38.2455 43.86 38.2505 43.955 38.2505 44.045V50H37.8005V42.925H38.0555C38.1021 42.925 38.1371 42.9317 38.1605 42.945C38.1871 42.955 38.2155 42.98 38.2455 43.02L42.8305 49.145C42.8205 49.045 42.8155 48.95 42.8155 48.86V42.925H43.2605ZM53.9691 48.81C54.0025 48.81 54.0308 48.8217 54.0541 48.845L54.2541 49.06C54.1075 49.2167 53.9475 49.3583 53.7741 49.485C53.6041 49.6083 53.4158 49.715 53.2091 49.805C53.0058 49.8917 52.7808 49.9583 52.5341 50.005C52.2908 50.055 52.0225 50.08 51.7291 50.08C51.2391 50.08 50.7891 49.995 50.3791 49.825C49.9725 49.6517 49.6225 49.4083 49.3291 49.095C49.0358 48.7783 48.8075 48.3967 48.6441 47.95C48.4841 47.5033 48.4041 47.0067 48.4041 46.46C48.4041 45.9233 48.4875 45.4333 48.6541 44.99C48.8208 44.5467 49.0541 44.1667 49.3541 43.85C49.6541 43.53 50.0141 43.2833 50.4341 43.11C50.8541 42.9333 51.3175 42.845 51.8241 42.845C52.3075 42.845 52.7358 42.92 53.1091 43.07C53.4825 43.22 53.8225 43.4317 54.1291 43.705L53.9741 43.93C53.9475 43.97 53.9058 43.99 53.8491 43.99C53.8091 43.99 53.7441 43.9533 53.6541 43.88C53.5641 43.8067 53.4391 43.7267 53.2791 43.64C53.1191 43.55 52.9191 43.4683 52.6791 43.395C52.4425 43.3217 52.1575 43.285 51.8241 43.285C51.3975 43.285 51.0058 43.3583 50.6491 43.505C50.2958 43.6517 49.9908 43.8617 49.7341 44.135C49.4808 44.4083 49.2825 44.7417 49.1391 45.135C48.9958 45.5283 48.9241 45.97 48.9241 46.46C48.9241 46.96 48.9958 47.4067 49.1391 47.8C49.2858 48.1933 49.4858 48.5267 49.7391 48.8C49.9925 49.07 50.2908 49.2783 50.6341 49.425C50.9808 49.5683 51.3541 49.64 51.7541 49.64C52.0075 49.64 52.2325 49.6233 52.4291 49.59C52.6291 49.5567 52.8125 49.5067 52.9791 49.44C53.1458 49.3733 53.3008 49.2917 53.4441 49.195C53.5875 49.0983 53.7291 48.985 53.8691 48.855C53.8858 48.8417 53.9025 48.8317 53.9191 48.825C53.9358 48.815 53.9525 48.81 53.9691 48.81ZM62.1898 46.46C62.1898 47.0067 62.1081 47.5033 61.9448 47.95C61.7814 48.3933 61.5514 48.7733 61.2548 49.09C60.9581 49.4033 60.6014 49.6467 60.1848 49.82C59.7714 49.99 59.3148 50.075 58.8148 50.075C58.3148 50.075 57.8581 49.99 57.4448 49.82C57.0314 49.6467 56.6764 49.4033 56.3798 49.09C56.0831 48.7733 55.8531 48.3933 55.6898 47.95C55.5264 47.5033 55.4448 47.0067 55.4448 46.46C55.4448 45.9167 55.5264 45.4233 55.6898 44.98C55.8531 44.5333 56.0831 44.1533 56.3798 43.84C56.6764 43.5233 57.0314 43.2783 57.4448 43.105C57.8581 42.9317 58.3148 42.845 58.8148 42.845C59.3148 42.845 59.7714 42.9317 60.1848 43.105C60.6014 43.275 60.9581 43.5183 61.2548 43.835C61.5514 44.1517 61.7814 44.5333 61.9448 44.98C62.1081 45.4233 62.1898 45.9167 62.1898 46.46ZM61.6598 46.46C61.6598 45.9667 61.5914 45.5233 61.4548 45.13C61.3181 44.7367 61.1248 44.4033 60.8748 44.13C60.6248 43.8567 60.3248 43.6483 59.9748 43.505C59.6248 43.3583 59.2381 43.285 58.8148 43.285C58.3948 43.285 58.0098 43.3583 57.6598 43.505C57.3098 43.6483 57.0081 43.8567 56.7548 44.13C56.5048 44.4033 56.3098 44.7367 56.1698 45.13C56.0331 45.5233 55.9648 45.9667 55.9648 46.46C55.9648 46.9567 56.0331 47.4017 56.1698 47.795C56.3098 48.185 56.5048 48.5167 56.7548 48.79C57.0081 49.0633 57.3098 49.2717 57.6598 49.415C58.0098 49.5583 58.3948 49.63 58.8148 49.63C59.2381 49.63 59.6248 49.5583 59.9748 49.415C60.3248 49.2717 60.6248 49.0633 60.8748 48.79C61.1248 48.5167 61.3181 48.185 61.4548 47.795C61.5914 47.4017 61.6598 46.9567 61.6598 46.46ZM67.6499 43.785C67.6199 43.8417 67.5766 43.87 67.5199 43.87C67.4766 43.87 67.4199 43.84 67.3499 43.78C67.2833 43.7167 67.1916 43.6483 67.0749 43.575C66.9583 43.4983 66.8116 43.4283 66.6349 43.365C66.4616 43.3017 66.2466 43.27 65.9899 43.27C65.7333 43.27 65.5066 43.3067 65.3099 43.38C65.1166 43.4533 64.9533 43.5533 64.8199 43.68C64.6899 43.8067 64.5899 43.9533 64.5199 44.12C64.4533 44.2867 64.4199 44.4617 64.4199 44.645C64.4199 44.885 64.4699 45.0833 64.5699 45.24C64.6733 45.3967 64.8083 45.53 64.9749 45.64C65.1416 45.75 65.3299 45.8433 65.5399 45.92C65.7533 45.9933 65.9716 46.0667 66.1949 46.14C66.4183 46.2133 66.6349 46.295 66.8449 46.385C67.0583 46.4717 67.2483 46.5817 67.4149 46.715C67.5816 46.8483 67.7149 47.0133 67.8149 47.21C67.9183 47.4033 67.9699 47.645 67.9699 47.935C67.9699 48.2317 67.9183 48.5117 67.8149 48.775C67.7149 49.035 67.5683 49.2617 67.3749 49.455C67.1816 49.6483 66.9449 49.8017 66.6649 49.915C66.3849 50.025 66.0649 50.08 65.7049 50.08C65.2383 50.08 64.8366 49.9983 64.4999 49.835C64.1633 49.6683 63.8683 49.4417 63.6149 49.155L63.7549 48.935C63.7949 48.885 63.8416 48.86 63.8949 48.86C63.9249 48.86 63.9633 48.88 64.0099 48.92C64.0566 48.96 64.1133 49.01 64.1799 49.07C64.2466 49.1267 64.3266 49.19 64.4199 49.26C64.5133 49.3267 64.6216 49.39 64.7449 49.45C64.8683 49.5067 65.0099 49.555 65.1699 49.595C65.3299 49.635 65.5116 49.655 65.7149 49.655C65.9949 49.655 66.2449 49.6133 66.4649 49.53C66.6849 49.4433 66.8699 49.3267 67.0199 49.18C67.1733 49.0333 67.2899 48.86 67.3699 48.66C67.4499 48.4567 67.4899 48.24 67.4899 48.01C67.4899 47.76 67.4383 47.555 67.3349 47.395C67.2349 47.2317 67.1016 47.0967 66.9349 46.99C66.7683 46.88 66.5783 46.7883 66.3649 46.715C66.1549 46.6417 65.9383 46.57 65.7149 46.5C65.4916 46.43 65.2733 46.3517 65.0599 46.265C64.8499 46.1783 64.6616 46.0683 64.4949 45.935C64.3283 45.7983 64.1933 45.63 64.0899 45.43C63.9899 45.2267 63.9399 44.9733 63.9399 44.67C63.9399 44.4333 63.9849 44.205 64.0749 43.985C64.1649 43.765 64.2966 43.5717 64.4699 43.405C64.6433 43.235 64.8566 43.1 65.1099 43C65.3666 42.8967 65.6583 42.845 65.9849 42.845C66.3516 42.845 66.6799 42.9033 66.9699 43.02C67.2633 43.1367 67.5299 43.315 67.7699 43.555L67.6499 43.785ZM76.9565 42.925V50H76.5115V43.97C76.5115 43.8833 76.5165 43.7917 76.5265 43.695L73.7415 48.64C73.6948 48.7267 73.6282 48.77 73.5415 48.77H73.4615C73.3748 48.77 73.3082 48.7267 73.2615 48.64L70.4015 43.685C70.4115 43.785 70.4165 43.88 70.4165 43.97V50H69.9665V42.925H70.3215C70.3682 42.925 70.4048 42.93 70.4315 42.94C70.4582 42.95 70.4848 42.9767 70.5115 43.02L73.3665 47.94C73.4165 48.0333 73.4598 48.1333 73.4965 48.24C73.5165 48.1867 73.5382 48.135 73.5615 48.085C73.5848 48.0317 73.6098 47.9817 73.6365 47.935L76.4115 43.02C76.4382 42.9767 76.4648 42.95 76.4915 42.94C76.5215 42.93 76.5598 42.925 76.6065 42.925H76.9565ZM85.7335 46.46C85.7335 47.0067 85.6519 47.5033 85.4885 47.95C85.3252 48.3933 85.0952 48.7733 84.7985 49.09C84.5019 49.4033 84.1452 49.6467 83.7285 49.82C83.3152 49.99 82.8585 50.075 82.3585 50.075C81.8585 50.075 81.4019 49.99 80.9885 49.82C80.5752 49.6467 80.2202 49.4033 79.9235 49.09C79.6269 48.7733 79.3969 48.3933 79.2335 47.95C79.0702 47.5033 78.9885 47.0067 78.9885 46.46C78.9885 45.9167 79.0702 45.4233 79.2335 44.98C79.3969 44.5333 79.6269 44.1533 79.9235 43.84C80.2202 43.5233 80.5752 43.2783 80.9885 43.105C81.4019 42.9317 81.8585 42.845 82.3585 42.845C82.8585 42.845 83.3152 42.9317 83.7285 43.105C84.1452 43.275 84.5019 43.5183 84.7985 43.835C85.0952 44.1517 85.3252 44.5333 85.4885 44.98C85.6519 45.4233 85.7335 45.9167 85.7335 46.46ZM85.2035 46.46C85.2035 45.9667 85.1352 45.5233 84.9985 45.13C84.8619 44.7367 84.6685 44.4033 84.4185 44.13C84.1685 43.8567 83.8685 43.6483 83.5185 43.505C83.1685 43.3583 82.7819 43.285 82.3585 43.285C81.9385 43.285 81.5535 43.3583 81.2035 43.505C80.8535 43.6483 80.5519 43.8567 80.2985 44.13C80.0485 44.4033 79.8535 44.7367 79.7135 45.13C79.5769 45.5233 79.5085 45.9667 79.5085 46.46C79.5085 46.9567 79.5769 47.4017 79.7135 47.795C79.8535 48.185 80.0485 48.5167 80.2985 48.79C80.5519 49.0633 80.8535 49.2717 81.2035 49.415C81.5535 49.5583 81.9385 49.63 82.3585 49.63C82.7819 49.63 83.1685 49.5583 83.5185 49.415C83.8685 49.2717 84.1685 49.0633 84.4185 48.79C84.6685 48.5167 84.8619 48.185 84.9985 47.795C85.1352 47.4017 85.2035 46.9567 85.2035 46.46ZM91.1937 43.785C91.1637 43.8417 91.1203 43.87 91.0637 43.87C91.0203 43.87 90.9637 43.84 90.8937 43.78C90.827 43.7167 90.7353 43.6483 90.6187 43.575C90.502 43.4983 90.3553 43.4283 90.1787 43.365C90.0053 43.3017 89.7903 43.27 89.5337 43.27C89.277 43.27 89.0503 43.3067 88.8537 43.38C88.6603 43.4533 88.497 43.5533 88.3637 43.68C88.2337 43.8067 88.1337 43.9533 88.0637 44.12C87.997 44.2867 87.9637 44.4617 87.9637 44.645C87.9637 44.885 88.0137 45.0833 88.1137 45.24C88.217 45.3967 88.352 45.53 88.5187 45.64C88.6853 45.75 88.8737 45.8433 89.0837 45.92C89.297 45.9933 89.5153 46.0667 89.7387 46.14C89.962 46.2133 90.1787 46.295 90.3887 46.385C90.602 46.4717 90.792 46.5817 90.9587 46.715C91.1253 46.8483 91.2587 47.0133 91.3587 47.21C91.462 47.4033 91.5137 47.645 91.5137 47.935C91.5137 48.2317 91.462 48.5117 91.3587 48.775C91.2587 49.035 91.112 49.2617 90.9187 49.455C90.7253 49.6483 90.4887 49.8017 90.2087 49.915C89.9287 50.025 89.6087 50.08 89.2487 50.08C88.782 50.08 88.3803 49.9983 88.0437 49.835C87.707 49.6683 87.412 49.4417 87.1587 49.155L87.2987 48.935C87.3387 48.885 87.3853 48.86 87.4387 48.86C87.4687 48.86 87.507 48.88 87.5537 48.92C87.6003 48.96 87.657 49.01 87.7237 49.07C87.7903 49.1267 87.8703 49.19 87.9637 49.26C88.057 49.3267 88.1653 49.39 88.2887 49.45C88.412 49.5067 88.5537 49.555 88.7137 49.595C88.8737 49.635 89.0553 49.655 89.2587 49.655C89.5387 49.655 89.7887 49.6133 90.0087 49.53C90.2287 49.4433 90.4137 49.3267 90.5637 49.18C90.717 49.0333 90.8337 48.86 90.9137 48.66C90.9937 48.4567 91.0337 48.24 91.0337 48.01C91.0337 47.76 90.982 47.555 90.8787 47.395C90.7787 47.2317 90.6453 47.0967 90.4787 46.99C90.312 46.88 90.122 46.7883 89.9087 46.715C89.6987 46.6417 89.482 46.57 89.2587 46.5C89.0353 46.43 88.817 46.3517 88.6037 46.265C88.3937 46.1783 88.2053 46.0683 88.0387 45.935C87.872 45.7983 87.737 45.63 87.6337 45.43C87.5337 45.2267 87.4837 44.9733 87.4837 44.67C87.4837 44.4333 87.5287 44.205 87.6187 43.985C87.7087 43.765 87.8403 43.5717 88.0137 43.405C88.187 43.235 88.4003 43.1 88.6537 43C88.9103 42.8967 89.202 42.845 89.5287 42.845C89.8953 42.845 90.2237 42.9033 90.5137 43.02C90.807 43.1367 91.0737 43.315 91.3137 43.555L91.1937 43.785Z" fill="#EBD4C8"/>
</svg>
